<svg width="512" height="512" viewBox="0 0 512 512" fill="none" xmlns="http://www.w3.org/2000/svg">
<path d="M512 112C512 141.938 500.094 169 480.938 189.094C453.782 115.688 391.875 59.219 315.125 39.688C335.656 15.594 365.844 0 400 0C461.875 0 512 50.125 512 112ZM196.859 39.688C176.328 15.594 146.141 0 112 0C50.141 0 0 50.125 0 112C0 141.938 11.922 169 31.063 189.094C58.219 115.688 120.141 59.219 196.859 39.688ZM464 272C464 322.531 445.969 368.812 416 404.875V464C416 490.5 394.5 512 368 512C343.438 512 323.406 493.469 320.562 469.656C300.217 476.312 278.562 480 255.999 480C233.436 480 211.765 476.312 191.436 469.656C188.594 493.469 168.563 512 144 512C117.5 512 96 490.5 96 464V404.875C66.047 368.812 48 322.531 48 272C48 157.125 141.125 64 256 64C370.875 64 464 157.125 464 272ZM432 272C432 174.937 353.031 96 256 96C158.953 96 80 174.938 80 272C80 369.031 158.953 448 256 448C353.031 448 432 369.031 432 272ZM272 128H240V272C240 274.812 240.734 277.562 242.141 280L306.157 390.844L333.845 374.844L272 267.719V128Z" fill="#FCFCFC"/>
</svg>
