<?xml version="1.0" encoding="iso-8859-1"?>
<!-- Generator: Adobe Illustrator 16.0.0, SVG Export Plug-In . SVG Version: 6.00 Build 0)  -->
<!DOCTYPE svg PUBLIC "-//W3C//DTD SVG 1.1//EN" "http://www.w3.org/Graphics/SVG/1.1/DTD/svg11.dtd">
<svg version="1.1" id="Capa_1" xmlns="http://www.w3.org/2000/svg" xmlns:xlink="http://www.w3.org/1999/xlink" x="0px" y="0px"
	 width="512px" height="512px" viewBox="0 0 512 512" style="enable-background:new 0 0 512 512;" xml:space="preserve">
<g>
	<path d="M512,112c0,29.938-11.906,57-31.062,77.094c-27.156-73.406-89.063-129.875-165.813-149.406C335.656,15.594,365.844,0,400,0
		C461.875,0,512,50.125,512,112z M196.859,39.688C176.328,15.594,146.141,0,112,0C50.141,0,0,50.125,0,112
		c0,29.938,11.922,57,31.063,77.094C58.219,115.688,120.141,59.219,196.859,39.688z M464,272c0,50.531-18.031,96.812-48,132.875V464
		c0,26.5-21.5,48-48,48c-24.562,0-44.594-18.531-47.438-42.344c-20.345,6.656-42,10.344-64.563,10.344
		c-22.563,0-44.234-3.688-64.563-10.344C188.594,493.469,168.563,512,144,512c-26.5,0-48-21.5-48-48v-59.125
		C66.047,368.812,48,322.531,48,272c0-114.875,93.125-208,208-208S464,157.125,464,272z M432,272c0-97.063-78.969-176-176-176
		c-97.047,0-176,78.938-176,176c0,97.031,78.953,176,176,176C353.031,448,432,369.031,432,272z M272,128h-32v144
		c0,2.812,0.734,5.562,2.141,8l64.016,110.844l27.688-16L272,267.719V128z"/>
</g>
<g>
</g>
<g>
</g>
<g>
</g>
<g>
</g>
<g>
</g>
<g>
</g>
<g>
</g>
<g>
</g>
<g>
</g>
<g>
</g>
<g>
</g>
<g>
</g>
<g>
</g>
<g>
</g>
<g>
</g>
</svg>
