<?xml version="1.0" standalone="no"?>
<!DOCTYPE svg PUBLIC "-//W3C//DTD SVG 20010904//EN"
 "http://www.w3.org/TR/2001/REC-SVG-20010904/DTD/svg10.dtd">
<svg version="1.0" xmlns="http://www.w3.org/2000/svg"
 width="700.000000pt" height="700.000000pt" viewBox="0 0 700.000000 700.000000"
 preserveAspectRatio="xMidYMid meet">
<metadata>
Created by potrace 1.11, written by Peter Selinger 2001-2013
</metadata>
<g transform="translate(0.000000,700.000000) scale(0.100000,-0.100000)"
fill="#000000" stroke="none">
<path d="M1389 6996 c-2 -2 -27 -6 -56 -10 -473 -56 -912 -357 -1146 -786 -64
-117 -135 -308 -153 -410 -2 -14 -7 -36 -10 -50 -19 -84 -26 -344 -11 -471 29
-265 179 -594 362 -797 41 -46 50 -51 58 -37 5 9 10 22 11 28 1 7 10 29 19 51
9 21 17 40 17 42 0 11 111 235 158 319 56 100 162 265 234 362 139 189 381
442 553 578 28 22 52 43 55 46 3 3 32 25 65 50 315 231 673 410 1030 514 50
14 96 28 104 31 29 9 -174 197 -316 292 -157 106 -389 200 -563 227 -25 4 -54
9 -65 12 -25 6 -341 14 -346 9z"/>
<path d="M5260 6985 c-47 -7 -105 -18 -130 -24 -25 -6 -54 -14 -64 -16 -62
-14 -140 -45 -266 -103 -64 -29 -154 -85 -230 -141 -90 -66 -264 -232 -253
-241 5 -4 44 -17 88 -29 83 -23 304 -101 365 -128 144 -65 314 -151 405 -207
59 -36 109 -66 112 -66 2 0 9 -5 16 -10 7 -6 48 -36 92 -67 326 -230 613 -528
842 -873 119 -180 212 -355 299 -566 20 -49 38 -91 39 -92 3 -4 20 15 80 83
78 91 180 265 238 405 39 96 78 246 94 360 9 61 10 311 2 375 -21 176 -60 312
-134 471 -171 371 -502 668 -890 801 -86 29 -166 48 -290 69 -65 12 -335 10
-415 -1z"/>
<path d="M3387 6124 c-1 -1 -47 -4 -102 -8 -55 -3 -111 -8 -125 -10 -14 -3
-72 -12 -130 -21 -458 -71 -939 -286 -1316 -590 -92 -75 -119 -100 -239 -221
-390 -392 -674 -931 -769 -1464 -25 -139 -27 -153 -42 -310 -8 -88 -7 -338 1
-430 4 -41 8 -92 10 -113 2 -21 6 -57 10 -80 4 -23 9 -55 11 -72 22 -135 75
-334 132 -495 91 -256 241 -531 405 -742 l79 -101 0 -441 c1 -329 4 -456 14
-501 53 -235 212 -414 439 -491 63 -21 103 -27 185 -30 194 -5 337 53 475 191
106 106 159 207 190 365 2 8 4 16 4 17 1 1 16 -3 34 -8 117 -37 309 -82 392
-94 17 -2 62 -8 100 -14 187 -27 465 -29 673 -6 46 6 248 40 287 49 86 20 118
28 176 45 37 10 75 22 86 25 15 5 19 0 21 -22 14 -171 174 -393 343 -476 116
-57 195 -75 319 -71 174 5 303 58 439 180 73 66 157 219 187 341 4 16 9 231
10 477 1 247 5 454 7 460 3 7 40 59 84 117 164 218 313 495 401 745 32 88 81
255 76 255 -3 0 0 8 5 18 5 10 12 38 16 62 4 25 8 48 11 51 2 4 6 24 9 45 3
22 8 51 11 66 55 278 46 702 -20 1033 -194 972 -926 1801 -1871 2120 -148 50
-367 102 -505 120 -30 4 -62 9 -70 10 -61 11 -443 27 -453 19z m358 -448 c28
-4 64 -9 80 -11 17 -3 48 -7 70 -10 46 -7 117 -22 195 -42 30 -8 66 -17 80
-20 14 -2 34 -8 45 -13 17 -7 87 -31 105 -35 3 -1 16 -6 30 -12 14 -6 48 -20
77 -32 29 -11 98 -43 154 -72 558 -279 994 -780 1197 -1374 24 -70 69 -235 77
-284 3 -19 8 -37 10 -41 2 -3 6 -26 9 -51 3 -24 8 -60 11 -79 24 -158 24 -521
0 -640 -3 -14 -8 -45 -11 -70 -3 -25 -9 -61 -14 -80 -5 -19 -12 -50 -15 -69
-3 -19 -8 -37 -10 -41 -2 -3 -6 -17 -9 -31 -9 -51 -70 -229 -113 -329 -160
-376 -429 -723 -749 -964 -49 -37 -97 -74 -107 -82 -9 -8 -19 -14 -22 -14 -2
0 -23 -13 -47 -29 -55 -37 -226 -129 -303 -163 -110 -48 -130 -56 -220 -86
-875 -293 -1824 -66 -2478 594 -215 217 -416 521 -516 784 -12 30 -26 64 -31
75 -29 64 -100 334 -115 438 -3 27 -8 59 -11 70 -23 114 -23 462 0 637 28 206
89 428 173 625 41 96 149 303 169 322 8 8 14 18 14 22 0 12 141 205 200 272
411 477 1002 785 1600 834 47 4 86 9 88 10 6 5 339 -3 387 -9z"/>
<path d="M3282 4258 c-1 -662 3 -1006 10 -1033 7 -29 309 -567 458 -815 18
-31 235 -406 246 -425 12 -21 169 -291 183 -314 6 -10 43 7 165 78 86 50 160
91 164 91 4 0 18 9 31 19 l24 19 -23 38 c-25 42 -28 47 -117 204 -33 58 -71
124 -86 147 -15 24 -27 45 -27 47 0 2 -19 37 -43 78 -106 180 -132 223 -132
228 0 3 -8 16 -17 30 -20 32 -295 507 -338 585 -18 33 -39 70 -47 82 -12 18
-14 174 -14 977 l0 956 -219 0 -218 0 0 -992z"/>
</g>
</svg>
